<svg width="64" height="64" viewBox="0 0 64 64" fill="none" xmlns="http://www.w3.org/2000/svg">
<rect width="64" height="64" rx="8" fill="white"/>
<path d="M33.8582 43.2915C34.309 43.2915 34.6745 43.6366 34.6745 44.0624C34.6745 44.4881 34.309 44.8332 33.8582 44.8332C33.4073 44.8332 33.0418 44.4881 33.0418 44.0624C33.0418 43.6366 33.4073 43.2915 33.8582 43.2915Z" fill="#3944C0"/>
<path d="M41.2048 42.5208C42.1065 42.5208 42.8375 43.211 42.8375 44.0624C42.8375 44.9138 42.1065 45.604 41.2048 45.604C40.3031 45.604 39.5721 44.9138 39.5721 44.0624C39.5721 43.211 40.3031 42.5208 41.2048 42.5208Z" fill="#3944C0"/>
<path d="M33.8582 49.4584C34.309 49.4584 34.6745 49.8035 34.6745 50.2292C34.6745 50.6549 34.309 51 33.8582 51C33.4073 51 33.0418 50.6549 33.0418 50.2292C33.0418 49.8035 33.4073 49.4584 33.8582 49.4584Z" fill="#3944C0"/>
<path d="M33.8588 35.5831C34.7606 35.5831 35.4915 36.2733 35.4915 37.1247C35.4915 37.9761 34.7606 38.6663 33.8588 38.6663C32.9571 38.6663 32.2262 37.9761 32.2262 37.1247C32.2262 36.2733 32.9571 35.5831 33.8588 35.5831Z" fill="#3944C0"/>
<path d="M33.858 27.8747C35.2105 27.8747 36.307 28.91 36.307 30.1871C36.307 31.4642 35.2105 32.4995 33.858 32.4995C32.5054 32.4995 31.4089 31.4642 31.4089 30.1871C31.4089 28.91 32.5054 27.8747 33.858 27.8747Z" fill="#3944C0"/>
<path d="M33.858 20.9373C35.2105 20.9373 36.307 21.9726 36.307 23.2497C36.307 24.5268 35.2105 25.5621 33.858 25.5621C32.5054 25.5621 31.4089 24.5268 31.4089 23.2497C31.4089 21.9726 32.5054 20.9373 33.858 20.9373Z" fill="#3944C0"/>
<path d="M25.6943 21.7084C26.5961 21.7084 27.327 22.3987 27.327 23.2501C27.327 24.1015 26.5961 24.7917 25.6943 24.7917C24.7926 24.7917 24.0616 24.1015 24.0616 23.2501C24.0616 22.3987 24.7926 21.7084 25.6943 21.7084Z" fill="#3944C0"/>
<path d="M33.858 14C35.2105 14 36.307 15.0353 36.307 16.3124C36.307 17.5895 35.2105 18.6248 33.858 18.6248C32.5054 18.6248 31.4089 17.5895 31.4089 16.3124C31.4089 15.0353 32.5054 14 33.858 14Z" fill="#3944C0"/>
<path d="M41.2046 35.5831C42.1063 35.5831 42.8373 36.2733 42.8373 37.1247C42.8373 37.9761 42.1063 38.6663 41.2046 38.6663C40.3029 38.6663 39.5719 37.9761 39.5719 37.1247C39.5719 36.2733 40.3029 35.5831 41.2046 35.5831Z" fill="#3944C0"/>
<path d="M48.5518 35.5831C49.4536 35.5831 50.1845 36.2733 50.1845 37.1247C50.1845 37.9761 49.4536 38.6663 48.5518 38.6663C47.6501 38.6663 46.9191 37.9761 46.9191 37.1247C46.9191 36.2733 47.6501 35.5831 48.5518 35.5831Z" fill="#3944C0"/>
<path d="M41.2037 27.8747C42.5563 27.8747 43.6527 28.91 43.6527 30.1871C43.6527 31.4642 42.5563 32.4995 41.2037 32.4995C39.8511 32.4995 38.7546 31.4642 38.7546 30.1871C38.7546 28.91 39.8511 27.8747 41.2037 27.8747Z" fill="#3944C0"/>
<path d="M41.2037 20.9373C42.5563 20.9373 43.6527 21.9726 43.6527 23.2497C43.6527 24.5268 42.5563 25.5621 41.2037 25.5621C39.8511 25.5621 38.7546 24.5268 38.7546 23.2497C38.7546 21.9726 39.8511 20.9373 41.2037 20.9373Z" fill="#3944C0"/>
<path d="M41.2037 14C42.5563 14 43.6527 15.0353 43.6527 16.3124C43.6527 17.5895 42.5563 18.6248 41.2037 18.6248C39.8511 18.6248 38.7546 17.5895 38.7546 16.3124C38.7546 15.0353 39.8511 14 41.2037 14Z" fill="#3944C0"/>
<path d="M48.551 27.8747C49.9035 27.8747 51 28.91 51 30.1871C51 31.4642 49.9035 32.4995 48.551 32.4995C47.1984 32.4995 46.1019 31.4642 46.1019 30.1871C46.1019 28.91 47.1984 27.8747 48.551 27.8747Z" fill="#3944C0"/>
<path d="M48.551 20.9373C49.9035 20.9373 51 21.9726 51 23.2497C51 24.5268 49.9035 25.5621 48.551 25.5621C47.1984 25.5621 46.1019 24.5268 46.1019 23.2497C46.1019 21.9726 47.1984 20.9373 48.551 20.9373Z" fill="#3944C0"/>
<path d="M48.551 14C49.9035 14 51 15.0353 51 16.3124C51 17.5895 49.9035 18.6248 48.551 18.6248C47.1984 18.6248 46.1019 17.5895 46.1019 16.3124C46.1019 15.0353 47.1984 14 48.551 14Z" fill="#3944C0"/>
<path d="M25.6943 14.7711C26.5961 14.7711 27.327 15.4613 27.327 16.3127C27.327 17.1641 26.5961 17.8543 25.6943 17.8543C24.7926 17.8543 24.0616 17.1641 24.0616 16.3127C24.0616 15.4613 24.7926 14.7711 25.6943 14.7711Z" fill="#3944C0"/>
<path d="M25.6943 28.6458C26.5961 28.6458 27.327 29.336 27.327 30.1874C27.327 31.0388 26.5961 31.729 25.6943 31.729C24.7926 31.729 24.0616 31.0388 24.0616 30.1874C24.0616 29.336 24.7926 28.6458 25.6943 28.6458Z" fill="#3944C0"/>
<path d="M18.3471 21.7084C19.2488 21.7084 19.9798 22.3987 19.9798 23.2501C19.9798 24.1015 19.2488 24.7917 18.3471 24.7917C17.4454 24.7917 16.7144 24.1015 16.7144 23.2501C16.7144 22.3987 17.4454 21.7084 18.3471 21.7084Z" fill="#3944C0"/>
<path d="M18.3479 29.4169C18.7988 29.4169 19.1643 29.762 19.1643 30.1877C19.1643 30.6134 18.7988 30.9585 18.3479 30.9585C17.8971 30.9585 17.5316 30.6134 17.5316 30.1877C17.5316 29.762 17.8971 29.4169 18.3479 29.4169Z" fill="#3944C0"/>
<path d="M11.8163 29.4172C12.2672 29.4172 12.6327 29.7623 12.6327 30.188C12.6327 30.6137 12.2672 30.9588 11.8163 30.9588C11.3655 30.9588 11 30.6137 11 30.188C11 29.7623 11.3655 29.4172 11.8163 29.4172Z" fill="#3944C0"/>
</svg>
